<?xml version="1.0" encoding="iso-8859-1"?>
<!-- Generator: Adobe Illustrator 19.0.0, SVG Export Plug-In . SVG Version: 6.00 Build 0)  -->
<svg version="1.1" id="Layer_1" xmlns="http://www.w3.org/2000/svg" xmlns:xlink="http://www.w3.org/1999/xlink" x="0px" y="0px"
	 viewBox="0 0 512 512" style="enable-background:new 0 0 512 512;" xml:space="preserve">
<g>
	<path style="fill:#808080;" d="M60.332,468.473c-4.642,0-8.403-3.762-8.403-8.403V358.833c0-4.641,3.761-8.403,8.403-8.403
		s8.403,3.762,8.403,8.403V460.07C68.736,464.71,64.973,468.473,60.332,468.473z"/>
	<path style="fill:#808080;" d="M254.611,468.473c-4.642,0-8.403-3.762-8.403-8.403v-49.818c0-4.641,3.761-8.403,8.403-8.403
		c4.642,0,8.403,3.762,8.403,8.403v49.818C263.014,464.71,259.253,468.473,254.611,468.473z"/>
	<path style="fill:#808080;" d="M448.892,468.473c-4.642,0-8.403-3.762-8.403-8.403V313.841c0-4.641,3.761-8.403,8.403-8.403
		c4.642,0,8.403,3.762,8.403,8.403V460.07C457.295,464.71,453.533,468.473,448.892,468.473z"/>
	<path style="fill:#808080;" d="M60.332,161.57c-4.642,0-8.403-3.762-8.403-8.403V51.93c0-4.641,3.761-8.403,8.403-8.403
		s8.403,3.762,8.403,8.403v101.237C68.736,157.808,64.973,161.57,60.332,161.57z"/>
	<path style="fill:#808080;" d="M254.611,212.989c-4.642,0-8.403-3.762-8.403-8.403V51.93c0-4.641,3.761-8.403,8.403-8.403
		c4.642,0,8.403,3.762,8.403,8.403v152.655C263.014,209.226,259.253,212.989,254.611,212.989z"/>
	<path style="fill:#808080;" d="M448.892,116.579c-4.642,0-8.403-3.762-8.403-8.403V51.93c0-4.641,3.761-8.403,8.403-8.403
		c4.642,0,8.403,3.762,8.403,8.403v56.246C457.295,112.816,453.533,116.579,448.892,116.579z"/>
</g>
<path style="fill:#FFDB56;" d="M115.038,144.764H8.403c-4.642,0-8.403,3.762-8.403,8.403v205.667c0,4.641,3.761,8.403,8.403,8.403
	h106.635c4.642,0,8.403-3.762,8.403-8.403V153.167C123.441,148.525,119.679,144.764,115.038,144.764z"/>
<path style="fill:#FBA806;" d="M115.038,144.764H81.425v222.473h33.613c4.642,0,8.403-3.762,8.403-8.403V153.167
	C123.441,148.525,119.679,144.764,115.038,144.764z"/>
<path style="fill:#F77935;" d="M309.317,196.182H202.682c-4.642,0-8.403,3.762-8.403,8.403v205.666c0,4.641,3.761,8.403,8.403,8.403
	h106.635c4.642,0,8.403-3.762,8.403-8.403V204.586C317.72,199.945,313.959,196.182,309.317,196.182z"/>
<path style="fill:#D9510D;" d="M309.317,196.182h-33.614v222.472h33.614c4.642,0,8.403-3.762,8.403-8.403V204.586
	C317.72,199.945,313.959,196.182,309.317,196.182z"/>
<path style="fill:#894BA2;" d="M503.597,99.772H396.962c-4.642,0-8.403,3.762-8.403,8.403v205.666c0,4.641,3.761,8.403,8.403,8.403
	h106.635c4.642,0,8.403-3.762,8.403-8.403V108.176C512,103.535,508.238,99.772,503.597,99.772z"/>
<path style="fill:#763794;" d="M503.597,99.772h-33.613v222.472h33.613c4.642,0,8.403-3.762,8.403-8.403V108.176
	C512,103.535,508.238,99.772,503.597,99.772z"/>
<g>
</g>
<g>
</g>
<g>
</g>
<g>
</g>
<g>
</g>
<g>
</g>
<g>
</g>
<g>
</g>
<g>
</g>
<g>
</g>
<g>
</g>
<g>
</g>
<g>
</g>
<g>
</g>
<g>
</g>
</svg>
